<svg xmlns="http://www.w3.org/2000/svg" viewBox="0 0 300.7 57.5"><defs><style>.a{fill:#5c514c;}.b{fill:#e64510;}</style></defs><title>sh2</title><path class="a" d="M156.6,5.2a9.7,9.7,0,0,1-.1,1.7,2,2,0,0,1-.3,1.1,2.09,2.09,0,0,1-.4.6.76.76,0,0,1-.5.2h-14v4.9h9.8a.76.76,0,0,1,.5.2.92.92,0,0,1,.4.6c.1.3.2.7.3,1.1a9.15,9.15,0,0,1,.1,1.7,3.4,3.4,0,0,1-.1,1,2.28,2.28,0,0,1-.3,1.1,2.09,2.09,0,0,1-.4.6c-.2.1-.3.2-.5.2h-9.8v6.1a1.42,1.42,0,0,1-.2.6,1.79,1.79,0,0,1-.7.5l-1.3.3a22.1,22.1,0,0,1-4.2,0,2.77,2.77,0,0,1-1.3-.3,1.16,1.16,0,0,1-.7-.5,1.42,1.42,0,0,1-.2-.6V4.4a2.7,2.7,0,0,1,.7-2.1,2.47,2.47,0,0,1,1.8-.6h20.1a.76.76,0,0,1,.5.2,2.09,2.09,0,0,1,.4.6c.1.4.2.7.3,1.1S156.6,4.7,156.6,5.2Z"/><path class="a" d="M98.4,16.4a7.35,7.35,0,0,0-2.1-2.2,15.09,15.09,0,0,0-2.8-1.5c-1-.4-2-.8-3-1.1l-3-.9A12.54,12.54,0,0,1,85,9.8,2.85,2.85,0,0,1,83.6,9a.91.91,0,0,1-.3-.7.76.76,0,0,1,.2-.5,1,1,0,0,1,.6-.5,2.84,2.84,0,0,1,1.3-.4,12.25,12.25,0,0,1,1.9-.2,24.52,24.52,0,0,1,2.7.2,7.94,7.94,0,0,1,2.2.6,9.12,9.12,0,0,1,1.6.6,3.19,3.19,0,0,0,1.4.3,1.69,1.69,0,0,0,1-.3,1.78,1.78,0,0,0,.7-.8c0-.4.1-.7.1-1v-2a2.35,2.35,0,0,0-.2-.8c-.1-.2-.2-.5-.3-.7a1.7,1.7,0,0,0-.6-.6,4.24,4.24,0,0,0-1.4-.6c-.7-.2-1.4-.4-2.2-.6S90.6.7,89.7.6a25.56,25.56,0,0,0-7.8.3,21.62,21.62,0,0,0-4.3,1.4,8.33,8.33,0,0,0-3,2.6,6.36,6.36,0,0,0-1.2,3.8,6.9,6.9,0,0,0,.8,3.2,6.3,6.3,0,0,0,2.1,2.2A14.28,14.28,0,0,0,79,15.6c1,.4,2,.8,3,1.1l2.9.9a11.72,11.72,0,0,1,2.4.9,3.77,3.77,0,0,1,1.5.9.91.91,0,0,1,.3.7,2.35,2.35,0,0,1-.2.8,2.7,2.7,0,0,1-.8.7,4.28,4.28,0,0,1-1.6.5,17.85,17.85,0,0,1-2.3.2,19.83,19.83,0,0,1-3.5-.3,19.73,19.73,0,0,1-2.6-.7c-.7-.3-1.3-.5-1.8-.7a2.67,2.67,0,0,0-2.6-.2,3,3,0,0,0-.8.8,1.93,1.93,0,0,0-.3,1c0,.4-.1.8-.1,1.1a5,5,0,0,0,.2,1.7,2.56,2.56,0,0,0,1,1.3,9.14,9.14,0,0,0,1.4.7,15.46,15.46,0,0,0,2.3.7c1,.2,2,.4,3,.5a23,23,0,0,0,3.7.2,26,26,0,0,0,5.6-.6,16.35,16.35,0,0,0,4.7-1.6,9.58,9.58,0,0,0,3.3-2.7A6.68,6.68,0,0,0,99,19.4,3.76,3.76,0,0,0,98.4,16.4Z"/><path class="a" d="M131.2,14.3a14.87,14.87,0,0,1-1,5.5,12.85,12.85,0,0,1-3,4.3,14.59,14.59,0,0,1-5,2.8,23.7,23.7,0,0,1-7,1,25.17,25.17,0,0,1-6.7-.9,13.3,13.3,0,0,1-4.7-2.5,9.72,9.72,0,0,1-2.8-4.1,17.59,17.59,0,0,1-.9-5.5,14.87,14.87,0,0,1,1-5.5,12.85,12.85,0,0,1,3-4.3,14.59,14.59,0,0,1,5-2.8,23.7,23.7,0,0,1,7-1,22.31,22.31,0,0,1,6.8.9,11.87,11.87,0,0,1,4.7,2.5,10.71,10.71,0,0,1,2.8,4.1A20.9,20.9,0,0,1,131.2,14.3Zm-8.4.3a17.33,17.33,0,0,0-.3-3.2,5.82,5.82,0,0,0-1.2-2.5,6.2,6.2,0,0,0-2.2-1.7,9.74,9.74,0,0,0-3.4-.6,11.27,11.27,0,0,0-3.2.5,5,5,0,0,0-2.2,1.6,6,6,0,0,0-1.3,2.5,9.35,9.35,0,0,0-.4,3.3,11.24,11.24,0,0,0,.4,3.2,5.82,5.82,0,0,0,1.2,2.5,4.56,4.56,0,0,0,2.2,1.7,9.74,9.74,0,0,0,3.4.6A11.27,11.27,0,0,0,119,22a5,5,0,0,0,2.2-1.6,7.45,7.45,0,0,0,1.3-2.5,16.86,16.86,0,0,0,.3-3.3Z"/><path class="a" d="M225.4,2.3a1.93,1.93,0,0,0-.9-.5,5.07,5.07,0,0,0-1.3-.2h-3.9a5.85,5.85,0,0,0-1.3.2,4.05,4.05,0,0,0-.9.5,2.51,2.51,0,0,0-.4.7l-4.9,15.4L206.7,2.9a2.09,2.09,0,0,0-.4-.6,1.93,1.93,0,0,0-.9-.5,5.07,5.07,0,0,0-1.3-.2c-.5,0-1.1-.1-1.9-.1h-1.9a5.85,5.85,0,0,0-1.3.2,4.05,4.05,0,0,0-.9.5,2,2,0,0,0-.4.8l-4.8,15.3L187.8,3a1.61,1.61,0,0,0-.4-.7,1.19,1.19,0,0,0-.9-.5,5.9,5.9,0,0,0-1.4-.2H181a5.85,5.85,0,0,0-1.3.2,1.62,1.62,0,0,0-.9.5,1.14,1.14,0,0,0-.3.8,2.2,2.2,0,0,0,.1.8,9.29,9.29,0,0,0,.4,1.3l7.4,20.7a4.05,4.05,0,0,0,.5.9,2.38,2.38,0,0,0,1.1.6,8.75,8.75,0,0,0,1.6.2c.6,0,1.5.1,2.6.1h2.6a9.85,9.85,0,0,0,1.7-.2,2.38,2.38,0,0,0,1.1-.6,4.05,4.05,0,0,0,.5-.9l4-12.4,4.2,12.5a4.05,4.05,0,0,0,.5.9,2.38,2.38,0,0,0,1.1.6,8.75,8.75,0,0,0,1.6.2c.7,0,1.5.1,2.6.1h2.5a8.75,8.75,0,0,0,1.6-.2,2.07,2.07,0,0,0,1-.6,4.05,4.05,0,0,0,.5-.9l7.5-20.7c.2-.5.3-.9.4-1.2a2.2,2.2,0,0,0,.1-.8C225.7,2.8,225.6,2.5,225.4,2.3Z"/><path class="a" d="M250.4,6.4a6.45,6.45,0,0,0-2.4-3,11.49,11.49,0,0,0-4.1-1.7,30.22,30.22,0,0,0-9.5-.3c-1.1.1-2.2.4-3.3.6a14.26,14.26,0,0,0-2.7.9,5.56,5.56,0,0,0-1.7.9,2.84,2.84,0,0,0-.8,1.1,7.84,7.84,0,0,0-.2,1.4,4.87,4.87,0,0,0,.1,1.2c.1.3.2.7.3,1s.4.5.6.7c.6.4,1.3.4,2.5-.1.5-.2,1.2-.5,2-.8a27.59,27.59,0,0,1,2.7-.8,13.05,13.05,0,0,1,3.4-.3,19.42,19.42,0,0,1,2.4.2,2.67,2.67,0,0,1,1.4.7,2.59,2.59,0,0,1,.7,1.1,3.33,3.33,0,0,1,.2,1.7v.8h-2a37.8,37.8,0,0,0-6.7.5,14,14,0,0,0-4.9,1.5,8.64,8.64,0,0,0-3.1,2.6,7,7,0,0,0-1.1,3.8,6.86,6.86,0,0,0,3.1,6,10.39,10.39,0,0,0,3.4,1.5,20.24,20.24,0,0,0,4.3.5,14.4,14.4,0,0,0,5.1-.9,14.09,14.09,0,0,0,3.2-1.7v.7a1.23,1.23,0,0,0,.5,1,2.84,2.84,0,0,0,1.2.4,29.44,29.44,0,0,0,4.2,0,2.45,2.45,0,0,0,1.2-.4,1.33,1.33,0,0,0,.6-1V10.7A10.68,10.68,0,0,0,250.4,6.4ZM236.6,17.1a17.2,17.2,0,0,1,3.2-.2h2.5V20a12,12,0,0,1-2.6,1.8,6.71,6.71,0,0,1-2.8.6,4.52,4.52,0,0,1-2.8-.7,2.14,2.14,0,0,1-.9-1.8,2.66,2.66,0,0,1,.3-1.2,2.19,2.19,0,0,1,1-.9A4.76,4.76,0,0,1,236.6,17.1Z"/><path class="a" d="M272.9,4a2.77,2.77,0,0,0-.1-.9.76.76,0,0,0-.2-.5,1,1,0,0,0-.4-.5,2.12,2.12,0,0,0-.7-.3,3.55,3.55,0,0,0-1-.2,3.75,3.75,0,0,0-1-.1,8.83,8.83,0,0,0-2.8.2,10.66,10.66,0,0,0-1.9.7,14.29,14.29,0,0,0-2,1.4,12,12,0,0,0-1.2,1.1V3.4a1.14,1.14,0,0,0-.3-.8,2.18,2.18,0,0,0-.8-.5,5,5,0,0,0-1.2-.2c-.5,0-1-.1-1.7-.1a8.62,8.62,0,0,0-1.7.1,5,5,0,0,0-1.2.2,2.18,2.18,0,0,0-.8.5,1.14,1.14,0,0,0-.3.8V26.3a.91.91,0,0,0,.4.8,4.05,4.05,0,0,0,.9.5,5.85,5.85,0,0,0,1.3.2c.5,0,1.2.1,2,.1a11.52,11.52,0,0,0,2-.1,5.85,5.85,0,0,0,1.3-.2,2,2,0,0,0,.9-.5,1.23,1.23,0,0,0,.4-.8V12.2c.5-.6,1-1.2,1.5-1.7a17.41,17.41,0,0,1,1.4-1.2,3.1,3.1,0,0,1,1.3-.6,4.44,4.44,0,0,1,2-.1c.3.1.6.1.8.2l.7.2a1.58,1.58,0,0,0,1.5-.1c.3-.2.5-.4.5-.7a3.59,3.59,0,0,0,.2-1.1c.1-.5.1-1,.2-1.6A3.75,3.75,0,0,0,272.9,4Z"/><path class="a" d="M299.9,8.2a10.48,10.48,0,0,0-2.5-3.8,11.59,11.59,0,0,0-4.3-2.5,21.81,21.81,0,0,0-12.4,0A13.75,13.75,0,0,0,276,4.6,12.3,12.3,0,0,0,273,9a15.93,15.93,0,0,0-1,5.7,16.47,16.47,0,0,0,1,5.8,10.48,10.48,0,0,0,3,4.2,11.83,11.83,0,0,0,4.9,2.4,25.58,25.58,0,0,0,6.7.8c1.3,0,2.7-.1,4-.2a28.8,28.8,0,0,0,3.3-.5l2.4-.6a3.1,3.1,0,0,0,1.3-.6,1,1,0,0,0,.4-.5,4.87,4.87,0,0,0,.3-.7,2.2,2.2,0,0,0,.1-.8V21.9a2.92,2.92,0,0,0-.2-.9,1.7,1.7,0,0,0-.6-.6,3,3,0,0,0-2.1.1,16.66,16.66,0,0,1-1.9.5,16.37,16.37,0,0,1-2.7.5,14.52,14.52,0,0,1-3.6.2,13.17,13.17,0,0,1-3.4-.4,6.5,6.5,0,0,1-2.2-1.1,4.39,4.39,0,0,1-1.2-1.8,12.86,12.86,0,0,1-.4-1.9h16.6a3.14,3.14,0,0,0,2.1-.7,2.65,2.65,0,0,0,.8-2.2v-1A8.84,8.84,0,0,0,299.9,8.2Zm-15.6-1a6.72,6.72,0,0,1,2.4-.4,5.33,5.33,0,0,1,4,1.4,5,5,0,0,1,1.2,3.3H281.2a8.33,8.33,0,0,1,.4-1.5,4.42,4.42,0,0,1,2.7-2.8Z"/><path class="a" d="M182.5,7.1a10.28,10.28,0,0,0,.1-1.7,15.52,15.52,0,0,0-.1-2.3,1.61,1.61,0,0,0-.3-.9,1,1,0,0,0-.4-.5.66.66,0,0,0-.6-.1H154.7a1.42,1.42,0,0,0-.6.2,1,1,0,0,0-.4.5l-.3.9c0,.3-.1,1.6-.1,2.3a9.15,9.15,0,0,0,.1,1.7,1.61,1.61,0,0,0,.3.9,1,1,0,0,0,.4.5,1.42,1.42,0,0,0,.6.2h8.1a.68.68,0,0,1,.7.7h0v17a.76.76,0,0,0,.2.5,2,2,0,0,0,.8.4,5.9,5.9,0,0,0,1.4.2c.6,0,1.3.1,2.1.1a12.79,12.79,0,0,0,2.1-.1,6.75,6.75,0,0,0,1.4-.2,1.61,1.61,0,0,0,.7-.4.76.76,0,0,0,.2-.5V9.5a.68.68,0,0,1,.7-.7h8.1a1.42,1.42,0,0,0,.6-.2,1,1,0,0,0,.4-.5C182.3,7.7,182.4,7.4,182.5,7.1Z"/><path class="b" d="M100.3,56a.71.71,0,0,0,.3-.6V35.1c0-2.1-.1-2.5-.3-2.6a2,2,0,0,0-.8-.4,5.85,5.85,0,0,0-1.3-.2c-.5,0-1.2-.1-2-.1a13.42,13.42,0,0,0-2.1.1,5.85,5.85,0,0,0-1.3.2,3,3,0,0,0-.8.4.86.86,0,0,0-.3.6v8.1a.67.67,0,0,1-.6.7H82.2a.67.67,0,0,1-.7-.6h0V33.2a.86.86,0,0,0-.3-.6,2,2,0,0,0-.8-.4,5.85,5.85,0,0,0-1.3-.2c-.5,0-1.2-.1-2-.1a11.52,11.52,0,0,0-2,.1,5.85,5.85,0,0,0-1.3.2,2,2,0,0,0-.8.4c-.1.1-.3.4-.3,2.6V55.5a.86.86,0,0,0,.3.6,2,2,0,0,0,.8.4,5.85,5.85,0,0,0,1.3.2c.5,0,1.2.1,2,.1a11.52,11.52,0,0,0,2-.1,5.85,5.85,0,0,0,1.3-.2,2,2,0,0,0,.8-.4.86.86,0,0,0,.3-.6V48.6a.68.68,0,0,1,.7-.7h8.9a.67.67,0,0,1,.7.6h0v6.9a.71.71,0,0,0,.3.6,2,2,0,0,0,.8.4,5.85,5.85,0,0,0,1.3.2c.5,0,1.2.1,2.1.1a10.93,10.93,0,0,0,2-.1,5.85,5.85,0,0,0,1.3-.2A2.51,2.51,0,0,0,100.3,56Z"/><path class="b" d="M128.9,56a1.42,1.42,0,0,0,.2-.6V33.1a.86.86,0,0,0-.3-.6,2.51,2.51,0,0,0-.7-.4,5,5,0,0,0-1.2-.2c-.5,0-1.2-.1-1.9-.1a10.89,10.89,0,0,0-1.9.1,6.88,6.88,0,0,0-1.3.2,1.61,1.61,0,0,0-.7.4.73.73,0,0,0-.2.6V47.4a1.42,1.42,0,0,1-.2.6,5.29,5.29,0,0,1-6.6,2.6,4.51,4.51,0,0,1-1.4-1,2.75,2.75,0,0,1-.8-1.5,10.9,10.9,0,0,1-.3-2.6V33.1a.86.86,0,0,0-.3-.6,2,2,0,0,0-.8-.4,5.07,5.07,0,0,0-1.3-.2c-.5,0-1.2-.1-1.9-.1a10.89,10.89,0,0,0-1.9.1,5.85,5.85,0,0,0-1.3.2,1.61,1.61,0,0,0-.7.4.73.73,0,0,0-.2.6V46.7a15.35,15.35,0,0,0,.5,4.3,8.3,8.3,0,0,0,1.8,3,8.13,8.13,0,0,0,3.3,2.1,14.17,14.17,0,0,0,5,.8A10.55,10.55,0,0,0,121,54a.65.65,0,0,1,.9.2.37.37,0,0,1,.1.3v.9c0,.2,0,.5.2.6a2.09,2.09,0,0,0,.6.4,4.25,4.25,0,0,0,1.1.2c.4,0,1,.1,1.7.1a8.62,8.62,0,0,0,1.7-.1,4.25,4.25,0,0,0,1.1-.2C128.4,56.3,128.7,56.2,128.9,56Z"/><path class="b" d="M158.8,37.3a9.15,9.15,0,0,0,.1-1.7,12.78,12.78,0,0,0-.1-2.1,2.92,2.92,0,0,0-.2-.9,1,1,0,0,0-.4-.5,1.09,1.09,0,0,0-.5-.1H132.6a.73.73,0,0,0-.6.2,1,1,0,0,0-.4.5,2.92,2.92,0,0,0-.2.9c0,.3-.1,1.5-.1,2.1a9.7,9.7,0,0,0,.1,1.7,1.88,1.88,0,0,0,.2.8,1,1,0,0,0,.4.5,1.42,1.42,0,0,0,.6.2h7.6a.68.68,0,0,1,.7.7h0V55.8a.76.76,0,0,0,.2.5.91.91,0,0,0,.7.3,5.85,5.85,0,0,0,1.3.2c.6,0,1.2.1,2,.1a11.52,11.52,0,0,0,2-.1,5.85,5.85,0,0,0,1.3-.2,4.87,4.87,0,0,0,.7-.3.76.76,0,0,0,.2-.5V39.5a.68.68,0,0,1,.7-.7h7.6a1.42,1.42,0,0,0,.6-.2,1,1,0,0,0,.4-.5A3.09,3.09,0,0,1,158.8,37.3Z"/><path class="b" d="M28.8,0A28.75,28.75,0,1,0,57.5,28.8,28.81,28.81,0,0,0,28.8,0Zm5.5,48.5a2.65,2.65,0,0,1-2.6-2.6h0a6.25,6.25,0,0,0-2.9-5.2L14.6,32.1a10.37,10.37,0,0,1-4.8-9.2c0-6.9,4.7-11.3,12-11.3h6.8a2.49,2.49,0,0,1,2.2,2.8,2.54,2.54,0,0,1-2.2,2.2H21.8c-3.2,0-7,1.1-7,6.3a6.46,6.46,0,0,0,3,5.2l14.7,9c1.7,1.1,4.4,3.3,4.4,8.6a2.56,2.56,0,0,1-2.4,2.7c-.1.1-.1.1-.2.1Zm9.5-12a2.6,2.6,0,0,1-5.2,0V32.8a2.6,2.6,0,1,1,5.2,0Zm0-11.9a2.65,2.65,0,0,1-2.6,2.6H30.9a2.6,2.6,0,0,1,0-5.2h7.7V14.3a2.6,2.6,0,1,1,5.2,0Z"/></svg>